<svg id="Layer_1" xmlns="http://www.w3.org/2000/svg" viewBox="0 0 490 490"><style>.st0{fill:#fe0101}.st1{fill:none;stroke:#fe0101;stroke-width:22;stroke-miterlimit:10}</style><path class="st0" d="M245.5 392.4c-90-1.2-150.3-71.1-150-148.9.3-93.2 75.7-150.9 153.1-148.3 81.3 2.8 147.9 71.6 145.1 154.4-2.6 76.8-69.8 143.3-148.2 142.8zm16.7-191.3c6.6 2.7 12.6 1.7 18.6-.2 6.5-2.1 12.9-4.3 19.8-4.8 3.7-.4 7.4.8 10.1 3.4 3.7 3.5 3.9 6 0 9-21.2 16.5-42.4 32.8-63.6 49.2-2.9 2.2-5.3 2.1-8-.2-3.1-2.6-6.3-4.9-9.4-7.4-18.2-14.6-37.6-27.7-53.9-44.5-6-6.2-4.8-10.5 3.7-12.7 3-.7 6.1-.4 8.8 1 5.6 2.5 11.1 5.2 16.7 7.8 4.5 2.1 9 3.5 13.8.9 1.9-1.1 3.2-2 .1-3.5-9.1-4.4-18-9.3-27.2-13.5-9-4.1-17.6-3.2-24.9 4-3.1 3.1-6.2 2.7-9.3.3s-6.5-5.2-9.7-7.8c-4.4-3.5-8.9-6.5-10.9-12.5-1-3.7-4.9-5.8-8.5-4.8-.3.1-.5.2-.8.3-3.9 1.5-6.6 4.9-7.1 9-.5 4 2 7.8 5.8 9 9.4 3 16 10 23.9 15.2 4.6 3.1 5.6 6.7 3.8 11.5-3.9 11-1.4 20.2 7.1 28.1 5.6 5.1 10.3 11 14 17.5 1.1 1.9 1.7 5.8 3.9 4.7s.5-4.7-.2-7.2c-.4-.9-.8-1.8-1.3-2.7-3.5-6.6-7.5-12.9-11.9-19-2-2.5-3.4-5.3-4.4-8.4-1.1-4.1-1.3-8.5 2.4-11 3.4-2.3 6.2 1.1 8.7 3 19.7 15.3 39.4 30.7 59.1 46.1 5.4 4.2 5.4 5 .1 9.2-28.2 22-56.3 43.9-84.4 65.9-2.3 1.8-5.2 4.4-3.2 6.9s3.9-1.5 5.9-2.3c.4-.2.8-.5 1.2-.9 28.7-22.3 57.5-44.3 86.6-66 3.8-2.9 6.8-2.9 10.6 0 28.7 22 57.5 43.7 86.3 65.6 2.5 1.9 4.9 3.4 8.3 2.5-.4-3.4-2.8-5.2-5.1-7l-53.4-42c-10.2-8-20.4-16.1-30.6-24.1-3.3-2.5-3.3-4.6.2-6.9 2.1-1.3 4-3 6-4.5 18.7-14.1 37.5-28.3 56.2-42.4 5.3-4 9.4-2.5 10.9 4 1.2 5.3.3 10.3-3.2 14.5-2.9 3.5-5.9 6.7-9 10-5.3 5.8-7.2 12.6-7.3 21.5 7.4-8.5 14.1-16.1 20.6-23.8 7.5-8.9 10.5-18.7 5.3-30-1.8-4-.9-7.7 2.9-10.6 6.8-5.1 13.1-10.8 21.5-13.2 2.7-.8 4.8-2.9 6.8-4.9 2.5-2.5 4.1-5.5 2.4-9-1.7-3.8-5.6-6.1-9.7-5.9-3.5 0-6.5 2.6-7 6-.9 4.5-3.7 7.3-7.2 9.7-3 2.1-5.9 4.3-8.8 6.6-8.1 6.5-11.2 7-19.5 1.1-8.7-6.3-17.2-6.9-26.6-2.2-8.7 4.4-17.4 8.4-26 12.4z"/><path d="M55.4 211.3c-6.6.5-4.4 9.6-3.3 13.9.4 1.6 1.2 6 2.9 6.8 1.6.7 1.1-1 2.6-.8 5.7.7 8.2-2.1 14.2 1.4 5.1 3 9.1 7.1 7.1 13.4-2.5 0-8-8.8-12.7-9.5-5.9-.9-12.9 4.7-18 1.4-2.5-1.6 2.1-6.1-3.1-6.5-3.4-.3-1.7 2.1-2.7 3.8-2.3 3.8-2.9 11.6 2 12.2 3.5.4 5.1-4.1 7.8-4.2 3.1-.1 3 3.5 5.1 4.4 9.1 4.2 3-3.5 6-5.7 3.4-2.5 7.8 8.6 9.4 11.2 4.6 7.4 8.4 11.9-.2 18.1-1.5-4.6-6.2-24.3-14.5-14.8-1.8 2 2 9.5-4.5 7.5-1.3-.4-1.4-6.7-2.6-7.8-6.9-5.9-12.8 12.1-16.1 3.7-.5-1.2 1.2-6 1.1-8 0-2.2-1.1-4.3-1-6.5.1-6.4 2.4-12.4 2-19-3.6 0-7.3 5.6-9.6 1-2-4 5.6-11.7 7.3-14.8 4.3-7.8 7.2-9 7.8 1 3.2-2.7 8.5-9.4 12.4-8.1 1.5.5-.6 3.3.2 3.7 3 1.7.6.1 6.5.2 3.7 0 12.3 5 15 .5 3.2-5.3-11.9-5.6-14.5-6.1 4.2-2.5 16.9-8.3 21.6-5 4.1 3 .3 11.5-2.1 13.9-4.2 3.7-29.8 8.3-26.1-1.3zm-7.4 9.8c-.9-3-4.8-3.9-5.8 0s4.8 4.4 5.8 0zm370.9-10.5c-2.3 1.3-9.3 18.1-13.9 12.9-3.4-3.9 7.2-12.9 8.9-15.8 11-18.6-24.7-11.1-20.6-29.2 4 3.3 15.1 15.1 13.7 4.6-.3-2.5-7.6-8.2-4.1-10.7 2.8-2.1 3.3 2.4 5.6 3 8.4 2.3 15.2-4 21.7-8.2 4.5-3 1.6-5.8 7.3.3 3.2 3.5 5.9 7.6 8.2 11.7 1.9 3.4 5.8 9.2 5.9 13.1.1 4.9-2.2 7.3-.8 12.6 2.7 10.3 4.1 13.5-8 13.9-3.5.1-9.4-1-12.4 1.6-2.4 2-1.9 7.9-5.5 8.1-3.2 0-5-15.4-6-17.9zm22.8-32.4c-6.1-3.3-8.5-5.3-12.1 1.3-1.3-1.4-3.7-1.6-5-3-1.2 1.5-1.9 3.3-2.1 5.2-5.3-3.9-14.8-.3-7.6 4.6 5.4 3.6 22.6-4.7 26.8-8.1zm-20.3 15.4c1.6-2.3 4.9-3 6-5.8-5.1 2.7-9.6.1-9 7.5.7 8.2 7.1 6.8 12.3 4.9l-9.3-6.6zm19.4-9.3c.6 3.5 4.3 6.7 1.7 10.4-3.5-2.6-3-8-8.3-8.4 1.8 4.3 4 14.6 10.6 9.5 5-3.8 1.1-10.1-4-11.5zm3.6 18.5c-1.3 2.7-3.2-2.5-2.6 4 .2 1.9 1.2 5.8 3.7 5.6 2.9-.2 5.2-11.3-1.1-9.6zm-8.9 11.4c2-.6 2.9-3.6 2-6.2-1.9-5.5-2.2-2.4-6.8-2.2l4.8 8.4zm-1.4-17.3c.4-5.2-2.3-8.5-6.9-3.9l6.9 3.9zm-6.7 16.6c-.1-2 1.3-4.3-.7-5.9-.3-.3-1.9 4.2.7 5.9zm-14-70.7c1.9 2.5 5.9 5.7 3.6 9.2-2.5 3.8-7.9-.2-11.2 0-10.1.8-3.2 11-5.9 19-6.2-2.3-2.3-6.8-5.2-10.7-3.1-4.3-8.4-1.4-12.2-4-10.8-7.3 8.6-18.6 13.7-22.4-9.7-.9-19.3 1-28.8 2.7-11.4 2-7.6-7.4-3.3-15.3 6.5-11.8 5-1.7 13.8-1.7 10.3 0 2.1-8.5 1.9-14.1 5.7 4.1 8.7 8 13.9 2.1 1.8-2.1 3-5.7 4.3-8.2 2.2 4.4 4.1 6.7 2.2 11.2-1.9 4.5-6.6 4.5-2.1 10.4-2.7 1.5-8.9-3.1-9.7.6-.2 1 2.9 3.6 3.6 4.7-6.5-1.9-13.1-1.4-16.9 4.9 12.2-3.2 25.8-1.8 32.3-15 6.6 8.9 18.3 12.5 19.7 24.9-3.2-1.2-22.6-18.7-19.9-11.3.2-.1 19.7 16.3 6.2 13zm-17.5 5.9c-.7-1.1.5-2.7-.5-3.8-1.7-2-8 1.2-8.3 3.4-.6 4.3 9.1 6.8 8.8.4zm-23.6-26.1c-3.8.4-10.1 6.4-3.8 7.2 2.3.3 11-6.6 3.8-7.2zm37.4 14.8c-11.5-15.1-10.4-1.5 0 0zm-2.1 8.7l-5.2-7.4c-2.5 5.8-2.1 6.5 5.2 7.4zM68 137.7c-13-1.4-4.5-9.4 2.2-6.7 3.2 1.3 2.8 3 4.4 5.2 1.2 1.6 1.7 3 2.8 4.4.7.9 2.6.2 3.6 1.7 1.1 1.7-.4 5 .1 6.8 2.2 8.3 6.2 2.2 13.3 1 3-.5 8.5-1.4 7.5 3.8-.7 3.5-14.1 4.7-16.8 5.3 1.4 3 18.7 9.4 14.5 13.6-5.1 5-15.5-7.3-20.1-8.7 1.2 2.9 7.1 12.8 6.3 15.5-1.2 3.9-5.6 1.3-9.5.3-.8 3.9 2.5 12 .2 15.2-1.7 2.3-5.9 2.8-7.6.2-1.9-2.9 5.5-6.1.4-10.2-4.3-3.5-8.3.8-11.8 3.1-1-4 3.7-9.5-2.9-10.1-3.7-.4-6.4 5.8-12.1 4.1 3.6-7.9 5.6-16.4 10.9-22.7 2.1-2.4 7.3-2.4 4.8-7-.8-1.6-4.4-1.6-5.1-2.6-1.5-2-3.1 2.3-2.5-2.5.4-3.5 3.3-3.7 5.9-4.2 5.9-1 7.9 3 11.5-5.5zm6.5 24.2c-.5-12.1-22.2 4-17.6 8.4 4.4 4.1 4.3-4.5 5.4-5.2 2.4-1.6 12.2-.7 12.2-3.2zm-2.7 11.9c2.3-.5 4.6 5.3 6.1-.6 1.3-5.3-5.5-6.5-8.9-4.6-7.3 4.3 1.5 13 2.8 5.2zm.4-28.1c-1.1 2.4-3.7 2.7-2.6 5.6.6 1.5 3.8 3.3 5.2 2.9 4.1-1.2-1.2-6.4-2.6-8.5zm91.2-69.1c3.6 5.9-2.8 8.7-2.5 14.2 3-.2 4-3.8 7.2-3.6.6 4.4-9.9 23.9-14.5 25.8-2.2.9-8.2.3-8.7-3-.3-1.9 5.6-4.2 6.8-4.8-4.1-4.4-8.2-8.9-12.3-13.3 8.4-4.5 12.5 8.1 16.3 6 2.7-1.5-8.1-15-10.2-15.3-5.1-.8-7.3 11.8-13.8 6.7-4.4-3.4 9.8-14.3 12.6-17.8-7 2.3-15.6 4.3-7.1-4.6 2-2.1 6.8-7.4 10-3.9 3.5 3.8-3.2 5.5-2 8.8 1.1-1 5.9-3.9 6.2-5.4 1-4.4-7.5-9.2-10.7-12.1 12.1-6.6 13.5 11.6 22.6 2.5-2.6-1.7-5.3-3.4-7.9-5.1 4.9-4 17.9.7 16.4 8.3-.8 4-7.1 2.4-8 6.1-1 3.9 5.6 7 8.1 8.7 1.1.8 10.2 7.8 11.2 7.2 3-1.8-.3-3.6.8-5.5 1.5-2.4-.1-3.4 4.7-.4 3.6 2.3 7.1 10 9.5 13.5-13.7 3-24-6.4-34.7-13zm-.5-.6c-6.5-5.4-8.3-5.2-12.6 1.1 6.1 4.6 7.3 4.5 12.6-1.1zM273 36.8c12.9 6.5 3.6 12-.2 22.7-1 2.8-5.5 15.7-3.6 18.1 2.5 3.1 11.3-3.7 14.4-5.3-3.5-3.2-8.3-4.6-11.5-8.3h19.1c-6.8-6.1-2.3-14.6-6.3-21.7 6.2.6 25.5-.4 28.2 6.8 2.9 7.5-10.8 10.3-14.1 15.7 5.7 3 12.9 1.9 14.1 10-2.8-.8-13-5.7-13.1-1.1-.1 3.8 12.9 17 15.3 20.3-9.1 5.5-16-12.4-19.8-18.1-2.9 6.5-2 14.5-8 19.5-2.7-6.3.9-12.6 1.4-18.9-3.8 1.4-21.9 10.3-25 8.2-5.1-3.5 2.2-14.5 2.1-19-7.7.4-18.4 7.3-5.8-4.6 7.4-6.9 13.7-13.4 12.8-24.3zm24.4 12.8c-7.8-1.5-4.6 9.6 2.1 7.4 7.4-2.3 1.3-6.3-2.1-7.4zm48.6 55.5c-7.9-4.6-10.4-6.5-18.4-2.2-13.5 7.3 1.6-10.3 4.9-15-2.4-.2-19-.7-13.6-5.3 1.5-1.3 9.1-.1 11.3-.5 4.4-.8 8.7-2.8 12.8-4.6-5.1-3.6-10.1-7.1-9.3-14.2 9.2 5.6 19.3 16.3 25 2.5 6.9 5.1 3 10.6 6.6 15.6 4.7 6.6 14.7 5 13.6 16.6-9.4-4.1-16.2-12.8-26.2-15.9.2 7.8 10.4 7.2 13.7 12.9 5 8.6-5.1 7.7-11.2 7.7 2.5 4.4 9.3 5.8 7.7 12.1-4.6-.3-5.5-5.8-8.8-6.5-4.5-.9-8 5.3-11.1 7.7-8.1 6.3-8.9-.1-11.5-7.6 5.6 4.1 11.6 3.5 14.5-3.3zm-12.2-11.2c4.9 2.3 9.9 4.5 14.8 6.8.6-2.5 1.3-5.1 1.9-7.6 2.4 3.7 5.4 6.9 9.6 3.1-2.3-3.1-6.7-2.3-9.1-4.9-1.6-1.7-1.4-5.8-2.3-6.7-5.2-4.2-12 6.5-14.9 9.3zm-223.4 24.2c3.1-3.1 7.9-11.8 13.2-11.4 5.5.4 4.4 5.4 6.1 9.2 2.2 5.2 4.7 5 2.6 10.2-1.4 3.4-10.4 13.7-13.5 15.4-5.3 3-27.8-3.5-22.7-10.2 2.6-3.5 9.3-.4 8.9-6.8-.1-2.3-3.8-6.3-5.4-8.2-4.3 6.6-8.9 13.4-17.8 13 .8-6.5 9.6-11.1 9.6-17.3-.1-5.6-7.7-7.3-12-9.4 3.9-3.5 8-5.1 13.1-3.9 2.9.7 4.5 3.5 7.8 2.4 5.7-1.9 8-12.5 16-11.8 8.5.8-1.5 8-4.1 10.7-8.7 8.8-8.1 8-1.8 18.1zm5.1 16.2c5.7-3.3 13-19.4 1.7-16.9-6.4 1.5-11.7 16.2-1.7 16.9zm76.6-62.7c2.3-3.8 10.2-13 8.4-17.6-.9-2.4-4.6-1.9-5.3-5.1 0-.1 2.7-8.4 2.8-8.6 2-3.3 8.4-6.5 10.6.7 2 6.7-6.4 5.6-7 11.8 6.2-1.4 7.1-1.9 10.5-6.7 1.5-2.2 2.7-1.8 3.6-5.1.6-2.5-.3-6.6-.3-9.2 1.6.2 6.6.2 7.7 2.3 1.1 2.2-2.1 4.8-1.3 6.4 1.9 3.9 11.3 1 8.2 7.4-.8 1.6-5 1.1-6.2 2.8-1.6 2.1-.9 4.3-.9 6.6.1 6.6 5 18.2 2.3 24.3-6.4 14.6-6.6-26.8-8.5-28.6-5.5-5.3-5.9 2.4-5.4 5.2 1.4 8.4 7.5 11.5-.6 19.9-.2-1.8-1.4-20.9-4.4-17.1-4.3 5.4 3.4 16.1 1.6 21.8-2.5 8-5.6 2.6-6.9-2.7-1.8-6.7-1.1-8.2-8.9-8.5zm220.3 178.8c1 3.7.8 14.2 6.9 9-1.5 9.1-7.6 15.7-17.2 14.4 1.5-3.8 6.2-5.1 7.4-8.9 1.4-4.5-2.7-12.6-3.8-16.6-2.8-10.1-4.5-14.8 7.3-12.5.2 1.6-2.8 4.6-3.4 5.3 4.4 2.3 8.9 4.7 13.3 7 1.4-6.2-3.6-12.6 2.8-17.4.5 4.1 9.6 47.3-1.3 43.5-1.8-.6 2-13.8.4-16.8-1.7-3.5-8.8-6.5-12.4-7z"/><path d="M432 288.3c-2.9-7.1-.8-12 3.9-16.3 3.9-3.6 7.7-7.3 11.6-11 3.1-2.9 3.2-5.5-.3-8.2-2.8-2.2-5.4-4.6-8.6-7.4-1.4 6.6 4.7 12.7-1 18.5-2-5-3.1-9.9-1.9-15 1.2-4.3.1-8.8-2.8-12.1-2-2.3-2.9-5.1-4-9l21 19.4c1.8 1.7 3.2 3.5 6.4 2.3 2.2-.8 4.6 1.1 5.7 3 1.3 2.2-1.2 3.1-2.5 4.2-9.8 7.6-16.1 18.1-24 27.3-1 1.2-2 2.5-3.5 4.3zM231.3 76.2c.6-.3 1.3-.5 2-.7 9 .5 9.1.5 8.7-8.8-.2-2.6-.6-5.3-1.2-7.9-.6-3-2.2-4-5.4-3.1s-3.8 2.1-2.7 5.3c1.2 3.6 1.6 7.4-2.1 11.2-1.6-5.3-3-10-4.5-14.8-.5-1.7-.1-2.7 1.8-3.3 5.6-2 11.1-4.2 16.8-6.2 3.5-1.2 6.9.1 10.3.8 1.7.4 3 1.8 2.7 3.1s-2.1 1.7-3.7 1.6c-6.9-.4-6.8-.4-6.8 6.4v21.5c0 2.1-.1 4-2.4 5s-3.4-.7-4.7-1.9c-2.9-2.3-5.5-5-8.8-8.2zm19.5-36.1c-13.4 7.7-17.9 6.4-25.5-7.4 3.8.1 7.6-.2 7.7 5.1 0 2.1 1.6 2 2.8 1.9 2.5-.3 4.9-.9 7.2-1.6 2.9-1 5.4-.8 7.8 2zM78.1 223.3c-3.3 2.5-6.2 3.4-9.7 2.9-3.4-.5-6.9-.3-10.4-.4-1.4-.1-3.2.6-3.1-1.9.1-2.1.2-4.6 2.9-4.3 6.6.8 13.6-.4 20.3 3.7z"/><circle class="st1" cx="243.8" cy="243.5" r="231"/></svg>