<svg id="Layer_1" xmlns="http://www.w3.org/2000/svg" viewBox="0 0 1931.7 2210.2"><style>.st0,.st1{fill:#143df5;stroke:#000;stroke-width:10;stroke-miterlimit:10}.st1{fill:#fff}</style><path class="st0" d="M1630.2 775.5v110.1h268.5v298h-268.5v106.2l268.5 1v322.9h-268.5v96.9l198.3.9-473.7 471.9H663.2V311.7L985.1 17.8l199.4 175-199.4 190.9v133l269.4-262.5 169.3 148.7-136.4 120.3v1h274.7l288.7 251.3m-220.6 0h-2.8m220-.8l-217.2.8M589.7 2147.4L50.1 1631.5V851.6l539.6-479.9v1775.7z"/><path class="st1" d="M299 1486.8l100 71.7h1l-3-600.9-98 73v456.2m686.1 126.9v93.7l301.1 1.8v-95.5H985.1m0-326.2l304 1.1.9-105H985.1v103.9m0-401.9h308.2l.2-109h2.3l-310.7 1v108"/></svg>